<svg width="86" height="100" viewBox="0 0 86 100" fill="none" xmlns="http://www.w3.org/2000/svg">
<path d="M0 73.6231C0 41.6282 0 25.6308 8.71526 14.781C10.5113 12.5451 12.5451 10.5113 14.781 8.71526C25.6308 0 41.6282 0 73.623 0H78.8522C79.6606 0 80.0648 0 80.4049 0.0371906C83.3317 0.357203 85.6428 2.66831 85.9628 5.59507C86 5.93521 86 6.33941 86 7.14783C86 9.25269 86 10.3051 85.9401 11.3115C85.4383 19.7401 81.8089 27.6781 75.7624 33.5715C75.0405 34.2752 74.2445 34.9637 72.6525 36.3407L19.3313 82.4617C11.6701 89.0883 7.83954 92.4016 4.59794 91.5015C3.95948 91.3242 3.35312 91.047 2.80138 90.6801C0 88.8172 0 83.7525 0 73.6231Z" fill="black"/>
<path d="M65.2792 79.7228H66.0119C74.7614 79.7228 79.1361 79.7228 82.0841 77.3114C82.6341 76.8615 83.1378 76.3578 83.5877 75.8078C85.9991 72.8598 85.9991 68.4851 85.9991 59.7356C85.9991 50.6483 85.9991 46.1047 83.4473 44.4315C82.9925 44.1333 82.4969 43.9023 81.9761 43.7457C79.0539 42.8671 75.574 45.7886 68.6141 51.6314L58.2262 60.3521C48.8963 68.1846 44.2314 72.1009 45.2359 75.6227C45.3096 75.8812 45.4017 76.1341 45.5114 76.3795C47.0065 79.7228 53.0974 79.7228 65.2792 79.7228Z" fill="black"/>
</svg>
