<svg width="200" height="200" viewBox="0 0 200 200" fill="none" xmlns="http://www.w3.org/2000/svg">
<rect width="200" height="200" rx="45" fill="#CCFF00"/>
<path d="M57 124.032C57 92.0369 57 76.0395 65.7153 65.1897C67.5113 62.9538 69.5451 60.9199 71.781 59.124C82.6308 50.4087 98.6282 50.4087 130.623 50.4087H135.852C136.661 50.4087 137.065 50.4087 137.405 50.4459C140.332 50.7659 142.643 53.077 142.963 56.0038C143 56.3439 143 56.7481 143 57.5565C143 59.6614 143 60.7138 142.94 61.7202C142.438 70.1488 138.809 78.0867 132.762 83.9802C132.04 84.6839 131.244 85.3724 129.653 86.7494L76.3313 132.87C68.6701 139.497 64.8395 142.81 61.5979 141.91C60.9595 141.733 60.3531 141.456 59.8014 141.089C57 139.226 57 134.161 57 124.032Z" fill="black"/>
<path d="M122.279 130.131H123.012C131.761 130.131 136.136 130.131 139.084 127.72C139.634 127.27 140.138 126.766 140.588 126.217C142.999 123.269 142.999 118.894 142.999 110.144C142.999 101.057 142.999 96.5134 140.447 94.8402C139.992 94.542 139.497 94.311 138.976 94.1544C136.054 93.2758 132.574 96.1972 125.614 102.04L115.226 110.761C105.896 118.593 101.231 122.51 102.236 126.031C102.31 126.29 102.402 126.543 102.511 126.788C104.007 130.131 110.097 130.131 122.279 130.131Z" fill="black"/>
</svg>
